<svg xmlns="http://www.w3.org/2000/svg" xmlns:xlink="http://www.w3.org/1999/xlink" width="768" height="768" viewBox="0 0 576 576"><g data-name="Layer 1"><path d="M177.359 134.543h221.306v221.306H177.36z" fill="#0a1857" fill-rule="evenodd"/><path d="M349.773 183.847h-28.41l-99.23 103.346v33.763l49.41-52.702 52.29 60.525 30.058-1.647-62.585-78.23z" fill="#fff" fill-rule="evenodd"/><path d="M223.369 211.433h13.083v48.173l-13.083 12.675zM246.427 185.493h13.083v48.174l-13.083 12.675zM270.308 161.612h13.083v48.174l-13.083 12.674z" fill="#b79758" fill-rule="evenodd"/><symbol id="a"><path d="M0 0z"/></symbol><symbol id="b"><path d="M.487 0v.025C.459.029.437.042.407.079a2.728 2.728 0 0 0-.155.204C.286.317.317.35.361.39a.177.177 0 0 0 .116.049v.025H.284V.439L.299.437C.333.433.335.422.317.4A1.27 1.27 0 0 0 .216.286a.155.155 0 0 0-.059-.04v.122c0 .062.006.066.059.071v.025H0V.439C.056.434.063.43.063.368V.096C.063.034.056.03.003.025V0H.22v.025C.163.03.157.034.157.096v.128C.168.225.177.221.194.198.245.126.306.046.341 0h.146z"/></symbol><symbol id="c"><path d="M.454.025a.097.097 0 0 0-.043.029 1.369 1.369 0 0 0-.116.179c.049.018.091.052.091.116 0 .044-.02.076-.048.096C.308.464.271.471.205.471H.003V.446c.053-.004.06-.013.06-.07V.103C.063.044.054.038 0 .032V.007h.22v.025C.164.038.157.044.157.103v.103h.014C.195.206.208.197.22.176.242.138.261.1.28.071.309.026.338.005.43.001L.45 0l.004.025M.157.234v.175c0 .014.001.022.006.026.006.005.016.008.035.008.041 0 .086-.028.086-.104C.284.303.274.275.249.253.233.239.207.234.175.234H.157z"/></symbol><symbol id="d"><path d="M.462.464h-.17V.439C.346.432.346.422.334.393.317.352.279.285.258.243L.173.398C.16.423.16.433.208.439v.025H0V.439C.04.433.053.425.081.377c.043-.073.07-.121.09-.16a.07.07 0 0 0 .01-.039V.1C.181.034.174.03.111.025V0h.237v.025C.283.03.278.034.278.1v.092c0 .02.002.03.013.049.035.066.055.096.082.138.027.04.042.055.089.06v.025z"/></symbol><symbol id="e"><path d="M.295.364.281.467a.315.315 0 0 1-.102.019C.078.486.013.425.013.346c0-.069.05-.107.126-.144C.194.174.226.148.226.106.226.06.198.03.153.03.084.03.039.112.026.158L0 .15A.778.778 0 0 1 .022.027.317.317 0 0 1 .139 0c.106 0 .177.065.177.147 0 .07-.052.11-.129.147C.122.325.096.347.096.386c0 .041.029.071.072.071C.226.457.255.403.27.359l.025.005z"/></symbol><symbol id="f"><path d="M.435.341a5.759 5.759 0 0 0-.008.141H.41C.397.468.387.464.367.464H.068C.047.464.037.465.026.482H.008C.007.445.003.392 0 .339h.027C.036.375.045.4.058.412c.01.011.022.02.088.02h.023V.096C.169.034.161.03.1.025V0h.239v.025C.274.03.266.034.266.096v.336h.032C.345.432.363.428.376.415A.16.16 0 0 0 .409.339l.026.002z"/></symbol><symbol id="g"><path d="M.491 0v.025C.444.031.434.041.41.104.362.226.317.351.27.475L.232.466.083.102C.058.04.05.031.001.025L0 0h.163v.025C.11.032.109.042.119.075l.027.079h.142L.319.071C.329.041.326.032.283.025V0h.208M.274.192H.159c.018.051.038.102.058.154h.002L.274.192z"/></symbol><symbol id="h"><path d="M.514.475H.329V.45C.379.447.396.432.4.407A.428.428 0 0 0 .408.31V.237C.408.117.371.049.28.049.2.049.159.115.159.223v.149c0 .069.008.073.063.078v.025H0V.45C.054.445.062.441.062.372V.207c0-.083.021-.138.063-.17A.216.216 0 0 1 .255 0c.051 0 .102.019.136.052.042.043.054.103.054.18V.31c0 .048.002.075.006.097.004.025.023.041.063.043v.025z"/></symbol><use xlink:href="#a" transform="matrix(80.389 0 0 -80.389 42.968 415.933)" fill="#b79758"/><use xlink:href="#b" transform="matrix(80.389 0 0 -80.389 60.814 415.933)" fill="#b79758"/><use xlink:href="#c" transform="matrix(80.389 0 0 -80.389 102.456 416.496)" fill="#b79758"/><use xlink:href="#d" transform="matrix(80.389 0 0 -80.389 136.956 415.933)" fill="#b79758"/><use xlink:href="#e" transform="matrix(80.389 0 0 -80.389 175.221 416.817)" fill="#b79758"/><use xlink:href="#f" transform="matrix(80.389 0 0 -80.389 203.706 415.933)" fill="#b79758"/><use xlink:href="#g" transform="matrix(80.389 0 0 -80.389 236.157 415.933)" fill="#b79758"/><use xlink:href="#c" transform="matrix(80.389 0 0 -80.389 279.004 416.496)" fill="#b79758"/><use xlink:href="#a" transform="matrix(80.389 0 0 -80.389 315.58 415.933)" fill="#b79758"/><use xlink:href="#f" transform="matrix(80.389 0 0 -80.389 333.025 415.933)" fill="#b79758"/><use xlink:href="#c" transform="matrix(80.389 0 0 -80.389 371.773 416.496)" fill="#b79758"/><use xlink:href="#h" transform="matrix(80.389 0 0 -80.389 407.895 416.817)" fill="#b79758"/><use xlink:href="#e" transform="matrix(80.389 0 0 -80.389 451.707 416.817)" fill="#b79758"/><use xlink:href="#f" transform="matrix(80.389 0 0 -80.389 480.165 415.933)" fill="#b79758"/><use xlink:href="#a" transform="matrix(80.389 0 0 -80.389 516.742 415.933)" fill="#b79758"/><symbol id="i"><path d="M.148 0v.769H0V0h.148z"/></symbol><symbol id="j"><path d="M.426.769V.538C.426.413.43.304.439.206H.437C.406.286.363.38.322.457L.16.769H0V0h.134v.236c0 .137-.003.245-.009.34h.004C.161.492.206.397.247.318L.412 0H.56v.769H.426z"/></symbol><symbol id="k"><path d="M.378.429A3.681 3.681 0 0 1 .314.153H.311a3.671 3.671 0 0 1-.062.276l-.087.34H0L.223 0h.169l.234.769H.467L.378.429z"/></symbol><symbol id="l"><path d="M.148.124v.214h.251v.121H.148v.186h.266v.124H0V0h.43v.124H.148z"/></symbol><symbol id="m"><path d="M0 .043A.412.412 0 0 1 .189 0c.179 0 .28.098.28.232 0 .101-.055.172-.178.227C.197.502.159.527.159.582c0 .043.035.085.113.085.063 0 .11-.019.137-.033L.44.755A.372.372 0 0 1 .275.79C.109.79.01.693.01.567c0-.1.072-.172.188-.222C.283.308.32.275.32.22.32.163.277.124.195.124a.345.345 0 0 0-.166.043L0 .043z"/></symbol><symbol id="n"><path d="M0 .769V.641h.189V0h.148v.641h.19v.128H0z"/></symbol><symbol id="o"><path d="M.539.769.452.48A4.106 4.106 0 0 1 .385.209H.382A3.894 3.894 0 0 1 .318.48L.235.769H.052L0 0h.135L.15.296c.005.095.01.209.012.306h.003C.183.508.207.404.232.317L.317.011h.112l.094.311c.026.086.054.188.076.28h.003C.601.524.606.4.61.299L.624 0h.141L.721.769H.539z"/></symbol><symbol id="p"><path d="M0 0z"/></symbol><symbol id="q"><path d="M.148.125v.644H0V0h.423v.125H.148z"/></symbol><symbol id="r"><path d="M0 .01C.039.005.096 0 .167 0c.134 0 .241.031.311.094.059.053.116.149.116.314 0 .139-.043.234-.116.294-.064.053-.151.08-.279.08C.124.782.054.776 0 .766V.01m.147.65a.377.377 0 0 0 .07.006C.354.666.439.58.439.406.439.204.345.117.204.118c-.02 0-.042 0-.057.003V.66z"/></symbol><use xlink:href="#i" transform="matrix(21.225 0 0 -21.225 140.268 441.245)" fill="#0a1857"/><use xlink:href="#j" transform="matrix(21.225 0 0 -21.225 151.984 441.245)" fill="#0a1857"/><use xlink:href="#k" transform="matrix(21.225 0 0 -21.225 171.043 441.245)" fill="#0a1857"/><use xlink:href="#l" transform="matrix(21.225 0 0 -21.225 191.397 441.245)" fill="#0a1857"/><use xlink:href="#m" transform="matrix(21.225 0 0 -21.225 207.611 441.457)" fill="#0a1857"/><use xlink:href="#n" transform="matrix(21.225 0 0 -21.225 224.038 441.245)" fill="#0a1857"/><use xlink:href="#o" transform="matrix(21.225 0 0 -21.225 242.015 441.245)" fill="#0a1857"/><use xlink:href="#l" transform="matrix(21.225 0 0 -21.225 266.401 441.245)" fill="#0a1857"/><use xlink:href="#j" transform="matrix(21.225 0 0 -21.225 283.338 441.245)" fill="#0a1857"/><use xlink:href="#n" transform="matrix(21.225 0 0 -21.225 302.503 441.245)" fill="#0a1857"/><use xlink:href="#p" transform="matrix(21.225 0 0 -21.225 313.943 441.245)" fill="#0a1857"/><use xlink:href="#q" transform="matrix(21.225 0 0 -21.225 325.51 441.245)" fill="#0a1857"/><use xlink:href="#i" transform="matrix(21.225 0 0 -21.225 341.98 441.245)" fill="#0a1857"/><use xlink:href="#o" transform="matrix(21.225 0 0 -21.225 353.248 441.245)" fill="#0a1857"/><use xlink:href="#i" transform="matrix(21.225 0 0 -21.225 377.635 441.245)" fill="#0a1857"/><use xlink:href="#n" transform="matrix(21.225 0 0 -21.225 388.034 441.245)" fill="#0a1857"/><use xlink:href="#l" transform="matrix(21.225 0 0 -21.225 406.457 441.245)" fill="#0a1857"/><use xlink:href="#r" transform="matrix(21.225 0 0 -21.225 423.393 441.394)" fill="#0a1857"/></g></svg>